#Comment line ignore any data following # character 
#Hierarchical Translation and Rotation (.htr) file 
[Header]	
#Header keywords are followed by a single value 
FileType HTR		#Single word string
DataType HTRS		#Translation followed by rotation and scale data
FileVersion 1		#integer
NumSegments 64		#integer
NumFrames 3		#integer
DataFrameRate 30		#integer, data frame rate in this file
EulerRotationOrder ZYX
CalibrationUnits mm
RotationUnits Degrees
GlobalAxisofGravity Y
BoneLengthAxis Y
ScaleFactor 1.00
[SegmentNames&Hierarchy]
#CHILD	PARENT
Pinger_Root GLOBAL
Pelvis Pinger_Root
L_Hip Pelvis
R_Hip Pelvis
Rear_Leg01 Pelvis
Spine1 Pelvis
L_Leg01 L_Hip
L_Leg02 L_Leg01
L_Leg03 L_Leg02
L_Foot L_Leg03
L_Toe1_01 L_Foot
L_Toe2_01 L_Foot
L_Toe3_01 L_Foot
planeAlignerLeft L_Foot
L_Toe1_02 L_Toe1_01
L_Toe1_03 L_Toe1_02
L_Toe2_02 L_Toe2_01
L_Toe2_03 L_Toe2_02
L_Toe3_02 L_Toe3_01
L_Toe3_03 L_Toe3_02
planeLockWeightLeft planeAlignerLeft
R_Leg01 R_Hip
R_Leg02 R_Leg01
R_Leg03 R_Leg02
R_Foot R_Leg03
planeAlignerRight R_Foot
R_Toe1_01 R_Foot
R_Toe2_01 R_Foot
R_Toe3_01 R_Foot
planeLockWeightRight planeAlignerRight
R_Toe1_02 R_Toe1_01
R_Toe1_03 R_Toe1_02
R_Toe2_02 R_Toe2_01
R_Toe2_03 R_Toe2_02
R_Toe3_02 R_Toe3_01
R_Toe3_03 R_Toe3_02
Rear_Leg02 Rear_Leg01
Rear_Leg03 Rear_Leg02
Rear_Leg04 Rear_Leg03
Rear_Foot Rear_Leg04
planeAlignerCenter Rear_Foot
Rear_Toe1_01 Rear_Foot
Rear_Toe2_01 Rear_Foot
Rear_Toe3_01 Rear_Foot
planeLockWeightCenter planeAlignerCenter
Rear_Toe1_02 Rear_Toe1_01
Rear_Toe1_03 Rear_Toe1_02
Rear_Toe2_02 Rear_Toe2_01
Rear_Toe2_03 Rear_Toe2_02
Rear_Toe3_02 Rear_Toe3_01
Rear_Toe3_03 Rear_Toe3_02
Back_Bone Spine1
Head Spine1
Motor_Bone Back_Bone
Ping_Mechanism Back_Bone
BN_LookIK Head
bottomMouth Head
L_Mouth01 Head
L_mouthFront Head
mouthGun Head
R_Mouth01 Head
R_mouthFront Head
TopMouth Head
weapon_bone Head
[BasePosition]
#SegmentName Tx, Ty, Tz, Rx, Ry, Rz, BoneLength
Pinger_Root 0.000000 0.000000 0.000000 -90.000000 0.000000 0.000000 10.000000 
Pelvis 0.000000 0.000000 0.000000 0.000000 0.000000 0.000000 10.000000 
L_Hip 0.000000 0.000000 0.000000 0.000000 0.000000 0.000000 10.000000 
R_Hip 0.000000 0.000000 0.000000 0.000000 0.000000 0.000000 10.000000 
Rear_Leg01 0.000000 0.000000 0.000000 0.000000 0.000000 0.000000 10.000000 
Spine1 0.000000 0.000000 0.000000 0.000000 0.000000 0.000000 10.000000 
L_Leg01 0.000000 0.000000 0.000000 0.000000 0.000000 0.000000 10.000000 
L_Leg02 0.000000 0.000000 0.000000 0.000000 0.000000 0.000000 10.000000 
L_Leg03 0.000000 0.000000 0.000000 0.000000 0.000000 0.000000 10.000000 
L_Foot 0.000000 0.000000 0.000000 0.000000 0.000000 0.000000 10.000000 
L_Toe1_01 0.000000 0.000000 0.000000 0.000000 0.000000 0.000000 10.000000 
L_Toe2_01 0.000000 0.000000 0.000000 0.000000 0.000000 0.000000 10.000000 
L_Toe3_01 0.000000 0.000000 0.000000 0.000000 0.000000 0.000000 10.000000 
planeAlignerLeft 0.000000 0.000000 0.000000 0.000000 0.000000 0.000000 10.000000 
L_Toe1_02 0.000000 0.000000 0.000000 0.000000 0.000000 0.000000 10.000000 
L_Toe1_03 0.000000 0.000000 0.000000 0.000000 0.000000 0.000000 10.000000 
L_Toe2_02 0.000000 0.000000 0.000000 0.000000 0.000000 0.000000 10.000000 
L_Toe2_03 0.000000 0.000000 0.000000 0.000000 0.000000 0.000000 10.000000 
L_Toe3_02 0.000000 0.000000 0.000000 0.000000 0.000000 0.000000 10.000000 
L_Toe3_03 0.000000 0.000000 0.000000 0.000000 0.000000 0.000000 10.000000 
planeLockWeightLeft 0.000000 0.000000 0.000000 0.000000 0.000000 0.000000 10.000000 
R_Leg01 0.000000 0.000000 0.000000 0.000000 0.000000 0.000000 10.000000 
R_Leg02 0.000000 0.000000 0.000000 0.000000 0.000000 0.000000 10.000000 
R_Leg03 0.000000 0.000000 0.000000 0.000000 0.000000 0.000000 10.000000 
R_Foot 0.000000 0.000000 0.000000 0.000000 0.000000 0.000000 10.000000 
planeAlignerRight 0.000000 0.000000 0.000000 0.000000 0.000000 0.000000 10.000000 
R_Toe1_01 0.000000 0.000000 0.000000 0.000000 0.000000 0.000000 10.000000 
R_Toe2_01 0.000000 0.000000 0.000000 0.000000 0.000000 0.000000 10.000000 
R_Toe3_01 0.000000 0.000000 0.000000 0.000000 0.000000 0.000000 10.000000 
planeLockWeightRight 0.000000 0.000000 0.000000 0.000000 0.000000 0.000000 10.000000 
R_Toe1_02 0.000000 0.000000 0.000000 0.000000 0.000000 0.000000 10.000000 
R_Toe1_03 0.000000 0.000000 0.000000 0.000000 0.000000 0.000000 10.000000 
R_Toe2_02 0.000000 0.000000 0.000000 0.000000 0.000000 0.000000 10.000000 
R_Toe2_03 0.000000 0.000000 0.000000 0.000000 0.000000 0.000000 10.000000 
R_Toe3_02 0.000000 0.000000 0.000000 0.000000 0.000000 0.000000 10.000000 
R_Toe3_03 0.000000 0.000000 0.000000 0.000000 0.000000 0.000000 10.000000 
Rear_Leg02 0.000000 0.000000 0.000000 0.000000 0.000000 0.000000 10.000000 
Rear_Leg03 0.000000 0.000000 0.000000 0.000000 0.000000 0.000000 10.000000 
Rear_Leg04 0.000000 0.000000 0.000000 0.000000 0.000000 0.000000 10.000000 
Rear_Foot 0.000000 0.000000 0.000000 0.000000 0.000000 0.000000 10.000000 
planeAlignerCenter 0.000000 0.000000 0.000000 0.000000 0.000000 0.000000 10.000000 
Rear_Toe1_01 0.000000 0.000000 0.000000 0.000000 0.000000 0.000000 10.000000 
Rear_Toe2_01 0.000000 0.000000 0.000000 0.000000 0.000000 0.000000 10.000000 
Rear_Toe3_01 0.000000 0.000000 0.000000 0.000000 0.000000 0.000000 10.000000 
planeLockWeightCenter 0.000000 0.000000 0.000000 0.000000 0.000000 0.000000 10.000000 
Rear_Toe1_02 0.000000 0.000000 0.000000 0.000000 0.000000 0.000000 10.000000 
Rear_Toe1_03 0.000000 0.000000 0.000000 0.000000 0.000000 0.000000 10.000000 
Rear_Toe2_02 0.000000 0.000000 0.000000 0.000000 0.000000 0.000000 10.000000 
Rear_Toe2_03 0.000000 0.000000 0.000000 0.000000 0.000000 0.000000 10.000000 
Rear_Toe3_02 0.000000 0.000000 0.000000 0.000000 0.000000 0.000000 10.000000 
Rear_Toe3_03 0.000000 0.000000 0.000000 0.000000 0.000000 0.000000 10.000000 
Back_Bone 0.000000 0.000000 0.000000 0.000000 0.000000 0.000000 10.000000 
Head 0.000000 0.000000 0.000000 0.000000 0.000000 0.000000 10.000000 
Motor_Bone 0.000000 0.000000 0.000000 0.000000 0.000000 0.000000 10.000000 
Ping_Mechanism 0.000000 0.000000 0.000000 0.000000 0.000000 0.000000 10.000000 
BN_LookIK 0.000000 0.000000 0.000000 0.000000 0.000000 0.000000 10.000000 
bottomMouth 0.000000 0.000000 0.000000 0.000000 0.000000 0.000000 10.000000 
L_Mouth01 0.000000 0.000000 0.000000 0.000000 0.000000 0.000000 10.000000 
L_mouthFront 0.000000 0.000000 0.000000 0.000000 0.000000 0.000000 10.000000 
mouthGun 0.000000 0.000000 0.000000 0.000000 0.000000 0.000000 10.000000 
R_Mouth01 0.000000 0.000000 0.000000 0.000000 0.000000 0.000000 10.000000 
R_mouthFront 0.000000 0.000000 0.000000 0.000000 0.000000 0.000000 10.000000 
TopMouth 0.000000 0.000000 0.000000 0.000000 0.000000 0.000000 10.000000 
weapon_bone 0.000000 0.000000 0.000000 0.000000 0.000000 0.000000 10.000000 
#Beginning of Data. Separated by tabs
#Fr	Tx	Ty	Tz	Rx	Ry	Rz	SF
[Pinger_Root]
1 0.000000 0.000000 0.000000 -0.000075 -0.000000 -0.000020 0.000000
2 0.000000 129.629623 0.000000 -0.000075 -0.000000 -0.000020 129.629623
3 0.000000 259.259247 0.000000 -0.000075 -0.000000 -0.000020 259.259247
[Pelvis]
1 186.347488 1367.603271 5059.365234 -102.028679 -77.097267 92.784882 5244.257813
2 93.858498 1370.468140 5112.746094 -103.262825 -78.590164 94.077705 5294.068848
3 9.623878 1377.748901 5157.319824 -108.403328 -82.317474 99.366264 5338.186523
[L_Hip]
1 5.766392 125.831482 872.656799 -178.250168 -81.786369 87.376007 881.701050
2 5.766392 125.831482 872.656799 -178.250168 -81.786369 87.376007 881.701050
3 5.766392 125.831482 872.656799 -178.250168 -81.786369 87.376007 881.701050
[R_Hip]
1 5.765438 125.836372 -872.654907 -1.748770 81.786041 87.376961 881.699829
2 5.765438 125.836372 -872.654907 -1.748770 81.786041 87.376961 881.699829
3 5.765438 125.836372 -872.654907 -1.748770 81.786041 87.376961 881.699829
[Rear_Leg01]
1 -192.298416 -925.602966 -0.001907 172.255630 5.252155 -144.759598 945.367432
2 -192.298416 -925.602966 -0.001907 172.032990 6.515625 -148.759796 945.367432
3 -192.298416 -925.602966 -0.001907 172.005035 8.451011 -149.382553 945.367432
[Spine1]
1 290.604584 5.007505 0.000477 10.228071 -2.145823 16.264891 290.647736
2 290.604584 5.007505 0.000477 10.268909 -2.217458 17.840771 290.647736
3 290.604584 5.007505 0.000477 10.355134 -2.404893 21.829067 290.647736
[L_Leg01]
1 761.932007 -0.002384 -0.069261 60.173962 -19.375013 -63.368584 761.932068
2 761.932007 -0.002384 -0.069261 61.136662 -16.624496 -65.993378 761.932068
3 761.932007 -0.002384 -0.069261 62.695374 -13.327861 -68.227440 761.932068
[L_Leg02]
1 1441.140503 -0.000954 -0.000715 -1.404184 0.417757 -98.925835 1441.140503
2 1441.140503 -0.000954 -0.000715 -1.462494 0.462285 -97.242538 1441.140503
3 1441.140503 -0.000954 -0.000715 -1.486848 0.533592 -97.025299 1441.140503
[L_Leg03]
1 1686.963989 -0.000715 -0.000954 0.019226 -0.005988 104.598404 1686.963989
2 1686.963989 -0.000715 -0.000954 0.026245 -0.006553 103.185219 1686.963989
3 1686.963989 -0.000715 -0.000954 0.036510 -0.010426 100.631577 1686.963989
[L_Foot]
1 3041.570068 -30.715107 11.297464 -17.703213 16.160219 61.949387 3041.746094
2 3041.570068 -30.715107 11.297464 -16.576763 16.225533 64.212463 3041.746094
3 3041.570068 -30.715107 11.297464 -15.519629 16.327015 67.233086 3041.746094
[L_Toe1_01]
1 -188.216690 -224.732346 -21.137953 89.699348 -3.374833 -165.449051 293.899567
2 -188.216690 -224.732346 -21.137953 89.712082 -3.434679 -165.433182 293.899567
3 -188.216690 -224.732346 -21.137953 89.724831 -3.494528 -165.417328 293.899567
[L_Toe2_01]
1 200.746536 -219.926590 148.838394 -77.584976 -14.474025 -44.187046 332.896027
2 200.746536 -219.926590 148.838394 -77.565712 -14.420163 -44.299782 332.896027
3 200.746536 -219.926590 148.838394 -77.546547 -14.366260 -44.412472 332.896027
[L_Toe3_01]
1 188.832520 -219.859131 -191.078659 -105.094337 14.710049 -44.951870 347.140900
2 188.832520 -219.859131 -191.078659 -105.055313 14.347095 -45.080677 347.140900
3 188.832520 -219.859131 -191.078659 -105.134552 14.542623 -45.196140 347.140900
[planeAlignerLeft]
1 -12.036133 -606.276672 27.304075 0.000000 -90.000000 -90.001900 607.010498
2 -5.312805 -607.898315 30.375212 0.000000 -90.000000 -90.001900 608.679871
3 -7.562332 -609.161438 28.462141 0.000000 -90.000000 -90.001900 609.872864
[L_Toe1_02]
1 413.761139 0.000477 0.000000 0.001412 -22.421448 0.001412 413.761139
2 413.761139 0.000477 0.000000 0.001412 -22.418085 0.001412 413.761139
3 413.761139 0.000477 0.000000 0.001412 -22.414724 0.001412 413.761139
[L_Toe1_03]
1 464.317322 0.000358 -0.000089 0.015052 81.056046 0.015052 464.317322
2 464.317322 0.000358 -0.000089 0.016627 81.904610 0.016627 464.317322
3 464.317322 0.000358 -0.000089 0.015836 81.499893 0.015836 464.317322
[L_Toe2_02]
1 342.235809 -0.000477 0.000238 0.001180 -77.741257 0.001180 342.235809
2 342.235809 -0.000477 0.000238 0.001181 -77.601677 0.001181 342.235809
3 342.235809 -0.000477 0.000238 0.001181 -77.462029 0.001181 342.235809
[L_Toe2_03]
1 420.210846 -0.000715 0.000000 -179.996613 77.155922 -179.993103 420.210846
2 420.210846 -0.000715 0.000000 -179.996063 78.414101 -179.992554 420.210846
3 420.210846 -0.000715 0.000000 -179.996109 78.324768 -179.992584 420.210846
[L_Toe3_02]
1 329.270111 0.000954 0.000000 0.001177 -81.880569 0.001177 329.270111
2 329.270111 0.000954 0.000000 0.001177 -81.864220 0.001177 329.270111
3 329.270111 0.000954 0.000000 0.001177 -81.847847 0.001177 329.270111
[L_Toe3_03]
1 439.137451 -0.001907 0.000954 -179.997986 72.516495 -179.994446 439.137451
2 439.137451 -0.001907 0.000954 -179.997787 73.371346 -179.994263 439.137451
3 439.137451 -0.001907 0.000954 -179.997818 73.278946 -179.994278 439.137451
[planeLockWeightLeft]
1 999.998779 0.098267 0.076113 -0.011826 -0.004376 0.005620 999.998840
2 999.998779 0.098261 0.076121 -0.011826 -0.004376 0.005620 999.998840
3 999.998779 0.098255 0.076130 -0.011826 -0.004376 0.005620 999.998840
[R_Leg01]
1 761.455627 -0.001907 -0.000358 93.849251 -16.293007 80.650543 761.455688
2 761.455627 -0.001907 -0.000358 93.731514 -12.959496 79.850929 761.455688
3 761.455627 -0.001907 -0.000358 93.096664 -6.289637 79.517387 761.455688
[R_Leg02]
1 1441.140625 0.000000 -0.000238 0.183950 -0.025004 -97.712723 1441.140625
2 1441.140625 0.000000 -0.000238 0.186104 -0.020958 -93.622208 1441.140625
3 1441.140625 0.000000 -0.000238 0.188887 -0.012713 -88.658005 1441.140625
[R_Leg03]
1 1686.963989 0.000954 0.001431 -0.063862 0.011852 92.438484 1686.963989
2 1686.963989 0.000954 0.001431 -0.081749 0.012979 88.586563 1686.963989
3 1686.963989 0.000954 0.001431 -0.092689 0.013853 85.496811 1686.963989
[R_Foot]
1 3041.560059 -30.531288 -11.204481 11.021991 -21.924694 86.373962 3041.734131
2 3041.560059 -30.531288 -11.204481 12.216212 -21.892851 87.468712 3041.734131
3 3041.560059 -30.531288 -11.204481 13.213284 -21.952869 88.122162 3041.734131
[planeAlignerRight]
1 -0.983124 -688.346863 0.349731 0.000000 -89.960434 -90.005180 688.347656
2 -1.536865 -694.935730 1.155853 0.000000 -89.960434 -90.005180 694.938416
3 -3.249664 -712.297974 3.283691 0.000000 -89.960434 -90.005180 712.312927
[R_Toe1_01]
1 -188.383347 -224.864899 21.052242 90.711693 1.939960 -159.553543 294.101532
2 -188.383347 -224.864899 21.052242 90.740997 1.890134 -159.005936 294.101532
3 -188.383347 -224.864899 21.052242 90.815681 1.763430 -157.524323 294.101532
[R_Toe2_01]
1 200.637817 -220.002121 -148.787384 -103.217186 11.336598 -50.096195 332.857574
2 200.637817 -220.002121 -148.787384 -103.301491 11.193846 -50.568050 332.857574
3 200.637817 -220.002121 -148.787384 -103.507057 10.814571 -51.813240 332.857574
[R_Toe3_01]
1 188.606735 -220.092957 191.126343 -72.765015 -14.073842 -51.998043 347.192566
2 188.606735 -220.092957 191.126343 -72.633293 -13.980663 -52.499851 347.192566
3 188.606735 -220.092957 191.126343 -72.261665 -13.719092 -53.824310 347.192566
[planeLockWeightRight]
1 999.999207 0.000000 0.076122 -0.011823 -0.004379 -0.000027 999.999207
2 999.999207 -0.000048 0.076129 -0.011823 -0.004379 -0.000027 999.999207
3 999.999268 -0.000095 0.076137 -0.011823 -0.004379 -0.000027 999.999268
[R_Toe1_02]
1 413.762085 0.000477 -0.000119 0.001404 -23.390312 0.001404 413.762085
2 413.762085 0.000477 -0.000119 0.001402 -23.640432 0.001402 413.762085
3 413.762085 0.000477 -0.000119 0.001400 -23.890543 0.001400 413.762085
[R_Toe1_03]
1 464.317810 0.000000 0.001088 0.010088 76.638115 0.010088 464.317810
2 464.317810 0.000000 0.001088 0.009619 75.984047 0.009619 464.317810
3 464.317810 0.000000 0.001088 0.008516 74.156609 0.008516 464.317810
[R_Toe2_02]
1 342.234741 -0.000954 0.000238 -0.002342 -75.466133 -0.002342 342.234741
2 342.234741 -0.000954 0.000238 -0.002343 -75.135468 -0.002343 342.234741
3 342.234741 -0.000954 0.000238 -0.002344 -74.804726 -0.002344 342.234741
[R_Toe2_03]
1 420.210846 0.000715 -0.000268 -179.983978 85.382217 -179.987488 420.210846
2 420.210846 0.000715 -0.000268 -179.981934 85.962204 -179.985428 420.210846
3 420.210846 0.000715 -0.000268 -179.971970 87.492744 -179.975479 420.210846
[R_Toe3_02]
1 329.270355 -0.000477 -0.000954 0.001179 -79.331924 0.001179 329.270355
2 329.270355 -0.000477 -0.000954 0.001179 -78.998703 0.001179 329.270355
3 329.270355 -0.000477 -0.000954 0.001179 -78.665375 0.001179 329.270355
[R_Toe3_03]
1 439.137939 0.000238 0.001431 -179.992615 82.791672 -179.989105 439.137939
2 439.137939 0.000238 0.001431 -179.991760 83.406174 -179.988266 439.137939
3 439.137939 0.000238 0.001431 -179.988464 85.039551 -179.984970 439.137939
[Rear_Leg02]
1 1162.777710 -0.029802 0.005960 28.702606 -13.147287 -110.889740 1162.777710
2 1162.777710 -0.029802 0.005960 29.375380 -10.747384 -113.744804 1162.777710
3 1162.777710 -0.029802 0.005960 29.797825 -6.818841 -118.668144 1162.777710
[Rear_Leg03]
1 607.192505 -0.013351 -0.073195 0.009958 -0.006082 79.188560 607.192505
2 607.192505 -0.013351 -0.073195 0.009921 -0.006143 79.889221 607.192505
3 607.192505 -0.013351 -0.073195 0.009883 -0.006204 80.589897 607.192505
[Rear_Leg04]
1 995.874512 -0.020504 -0.011921 -0.044271 -0.014310 98.330856 995.874573
2 995.874512 -0.020504 -0.011921 -0.044686 -0.012958 101.815437 995.874573
3 995.874512 -0.020504 -0.011921 -0.042330 -0.014768 107.354637 995.874573
[Rear_Foot]
1 3096.176270 -0.067472 -0.041425 -69.958168 58.785343 65.794716 3096.176270
2 3096.176270 -0.067472 -0.041425 -63.823769 58.057053 70.481590 3096.176270
3 3096.176270 -0.067472 -0.041425 -62.262154 57.271248 77.917770 3096.176270
[planeAlignerCenter]
1 -0.156412 245.534363 -761.828430 0.000009 0.000003 -179.999985 800.418457
2 0.753293 248.463806 -759.883911 0.000009 0.000003 -179.999985 799.473877
3 2.918935 255.924377 -756.841980 0.000009 0.000003 -179.999985 798.946533
[Rear_Toe1_01]
1 0.653352 83.966492 -371.173737 0.094658 39.642590 90.039101 380.553192
2 0.653352 83.966492 -371.173737 0.094222 39.643505 90.040459 380.553192
3 0.653352 83.966492 -371.173737 0.093789 39.644444 90.041840 380.553192
[Rear_Toe2_01]
1 178.200760 -294.826019 -362.060547 62.153034 84.605148 -8.520371 499.765686
2 178.200760 -294.826019 -362.060547 67.819122 84.616386 -2.832429 499.765686
3 178.200760 -294.826019 -362.060547 82.052467 84.429092 11.433145 499.765686
[Rear_Toe3_01]
1 -153.359680 -308.780914 -362.060852 -63.931393 83.953506 -175.451019 499.952881
2 -153.359680 -308.780914 -362.060852 -68.969643 83.927628 179.490433 499.952881
3 -153.359680 -308.780914 -362.060852 -81.526863 83.674423 166.891785 499.952881
[planeLockWeightCenter]
1 0.000229 0.000153 0.076370 -0.011814 -0.004373 -0.000015 0.076371
2 0.000229 0.000127 0.076396 -0.011814 -0.004373 -0.000015 0.076396
3 0.000229 0.000102 0.076421 -0.011814 -0.004373 -0.000015 0.076422
[Rear_Toe1_02]
1 379.707825 0.194073 0.000477 -0.000767 -33.624729 0.000838 379.707855
2 379.707825 0.194073 0.000477 -0.000767 -33.624729 0.000838 379.707855
3 379.707825 0.194073 0.000477 -0.000767 -33.624729 0.000838 379.707855
[Rear_Toe1_03]
1 500.129700 0.165701 0.000119 -179.984222 85.301506 -179.987732 500.129761
2 500.129700 0.165701 0.000119 -179.980759 86.232925 -179.984268 500.129761
3 500.129700 0.165701 0.000119 -179.950485 88.620720 -179.953979 500.129761
[Rear_Toe2_02]
1 340.494507 0.000238 -0.000954 179.998825 -87.344498 179.998825 340.494507
2 340.494507 0.000238 -0.000954 179.998825 -87.280914 179.998825 340.494507
3 340.494507 0.000238 -0.000954 179.998825 -87.217094 179.998825 340.494507
[Rear_Toe2_03]
1 433.103577 0.000000 0.000238 -179.996231 55.377346 -179.999893 433.103546
2 433.103577 0.000000 0.000238 -179.996262 54.978733 -179.999924 433.103546
3 433.103577 0.000000 0.000238 -179.996277 54.580105 -179.999954 433.103546
[Rear_Toe3_02]
1 340.494141 -0.000358 -0.000477 -179.994171 -87.385513 -179.994171 340.494171
2 340.494141 -0.000358 -0.000477 -179.994171 -87.324234 -179.994171 340.494171
3 340.494141 -0.000358 -0.000477 -179.994171 -87.262833 -179.994171 340.494171
[Rear_Toe3_03]
1 433.103577 0.001431 -0.000238 179.992371 55.623230 179.999695 433.103546
2 433.103577 0.001431 -0.000238 179.992416 55.240894 179.999741 433.103546
3 433.103577 0.001431 -0.000238 179.992447 54.858532 179.999786 433.103546
[Back_Bone]
1 1312.175781 -701.934692 0.000954 -2.876992 1.429053 -84.242424 1488.125488
2 1312.175781 -701.934692 0.000954 -3.016175 1.111372 -84.530403 1488.125488
3 1312.175781 -701.934692 0.000954 -3.153744 0.792996 -84.817581 1488.125488
[Head]
1 1406.159424 809.709290 0.001431 -1.529441 2.460027 2.902872 1622.625488
2 1406.159424 809.709290 0.001431 -1.724004 2.452289 2.720722 1622.625488
3 1406.159424 809.709290 0.001431 -1.918542 2.443934 2.538600 1622.625488
[Motor_Bone]
1 1158.364380 -417.834747 0.000477 -2.687934 0.131929 -105.851517 1231.419434
2 1158.364380 -417.834747 0.000477 -5.513655 1.191246 -104.796577 1231.419434
3 1158.364380 -417.834747 0.000477 -3.495545 0.584006 -105.401466 1231.419434
[Ping_Mechanism]
1 1273.029053 -463.487549 -1.178799 0.000103 -0.000053 82.120995 1354.778687
2 1266.109985 -460.364380 -2.392082 0.000103 -0.000053 82.120995 1347.210205
3 1248.704590 -452.156952 -5.198746 0.000103 -0.000053 82.120995 1328.057251
[BN_LookIK]
1 193.241119 1380.371704 -0.002861 0.000000 89.965736 -31.038179 1393.832153
2 193.241119 1380.371704 -0.002861 0.000000 89.965736 -31.038179 1393.832153
3 193.241119 1380.371704 -0.002861 0.000000 89.965736 -31.038179 1393.832153
[bottomMouth]
1 -435.092926 615.759399 -0.000954 -0.000022 0.000016 73.527184 753.966492
2 -435.092926 615.759399 -0.000954 -0.000022 0.000016 73.527184 753.966492
3 -435.092926 615.759399 -0.000954 -0.000022 0.000016 73.527184 753.966492
[L_Mouth01]
1 554.440979 7.658243 838.222046 150.204178 23.759130 109.605339 1005.027161
2 554.440979 7.658243 838.222046 150.204178 23.759130 109.605339 1005.027161
3 554.440979 7.658243 838.222046 150.204178 23.759130 109.605339 1005.027161
[L_mouthFront]
1 551.629089 934.514771 339.150421 0.000081 2.804060 79.119301 1136.941284
2 551.629089 934.514771 339.150421 0.000081 2.804060 79.119301 1136.941284
3 551.629089 934.514771 339.150421 0.000081 2.804060 79.119301 1136.941284
[mouthGun]
1 55.332661 1627.420898 0.000000 0.000023 0.000009 -11.038128 1628.361328
2 55.332661 1627.420898 0.000000 0.000023 0.000009 -11.038128 1628.361328
3 55.332661 1627.420898 0.000000 0.000023 0.000009 -11.038128 1628.361328
[R_Mouth01]
1 554.442383 7.659197 -838.223938 29.795891 -23.759109 109.605331 1005.029541
2 554.442383 7.659197 -838.223938 29.795891 -23.759109 109.605331 1005.029541
3 554.442383 7.659197 -838.223938 29.795891 -23.759109 109.605331 1005.029541
[R_mouthFront]
1 551.629089 934.514282 -339.151367 0.000029 -2.803930 79.119133 1136.941162
2 551.629089 934.514282 -339.151367 0.000029 -2.803930 79.119133 1136.941162
3 551.629089 934.514282 -339.151367 0.000029 -2.803930 79.119133 1136.941162
[TopMouth]
1 461.269867 -56.106091 -0.008583 -0.000059 -0.000268 92.025169 464.669525
2 461.269867 -56.106091 -0.008583 -0.000059 -0.000268 92.025169 464.669525
3 461.269867 -56.106091 -0.008583 -0.000059 -0.000268 92.025169 464.669525
[weapon_bone]
1 -987.239868 1448.372803 0.001431 0.000000 89.965736 -31.038221 1752.833740
2 -987.239868 1448.372803 0.001431 0.000000 89.965736 -31.038221 1752.833740
3 -987.239868 1448.372803 0.001431 0.000000 89.965736 -31.038221 1752.833740
